PathFileType	4	(X/Y/Z)	Patient4_TMGait_0pt4_03_right_44.trc.trc
DataRate	CameraRate	NumFrames	NumMarkers	Units	OrigDataRate	OrigDataStartFrame	OrigNumFrames
75.268817204301	75.268817204301	4	33	mm	75.268817204301	71	       141
Frame#	Time	Sacral			L.Shoulder			Chest			R.Shoulder			Neck			R.ASIS			L.ASIS			R.Thigh.Superior			R.Thigh.Lateral			R.Thigh.Inferior			R.Patella			L.Thigh.Superior			L.Thigh.Lateral			L.Thigh.Inferior			L.Patella			L.Shank.Superior			L.Shank.Lateral			L.Shank.Inferior			R.Shank.Superior			R.Shank.Lateral			R.Shank.Inferior			R.Heel			R.Midfoot.Superior			R.Midfoot.Lateral			R.Toe			L.Heel			L.Midfoot.Lateral			L.Midfoot.Superior			L.Toe			L.Elbow			L.Wrist			R.Elbow			R.Wrist			
		X1	Y1	Z1	X2	Y2	Z2	X3	Y3	Z3	X4	Y4	Z4	X5	Y5	Z5	X6	Y6	Z6	X7	Y7	Z7	X8	Y8	Z8	X9	Y9	Z9	X10	Y10	Z10	X11	Y11	Z11	X12	Y12	Z12	X13	Y13	Z13	X14	Y14	Z14	X15	Y15	Z15	X16	Y16	Z16	X17	Y17	Z17	X18	Y18	Z18	X19	Y19	Z19	X20	Y20	Z20	X21	Y21	Z21	X22	Y22	Z22	X23	Y23	Z23	X24	Y24	Z24	X25	Y25	Z25	X26	Y26	Z26	X27	Y27	Z27	X28	Y28	Z28	X29	Y29	Z29	X30	Y30	Z30	X31	Y31	Z31	X32	Y32	Z32	X33	Y33	Z33	

71	58.600000000000	949.311177584410	1004.471220037337	523.152052596812	1104.784004895088	1429.181274610093	321.475017038921	1234.276066902908	1357.468054381916	460.583031431823	1186.402010446913	1430.059239934764	648.304948671767	1116.634586407430	1489.632526675469	478.536890212488	1188.842063371772	934.139675746674	607.910057466451	1140.232826703219	957.975873376084	337.016803594586	1188.575722310242	723.962326697244	578.607940753664	1091.250398423120	626.989527951325	646.527566116313	1147.590643460920	564.043534845811	562.041163489727	1130.406615453723	479.350137014865	567.465478778970	1214.108904954549	765.972765321457	360.653595132175	1151.560037037485	637.065392144891	294.135421123422	1255.841057738222	575.952316148414	349.438500798341	1278.466615344374	510.672598936891	347.735851280186	1258.477138203195	438.727522843125	339.288024781283	1184.495097773088	311.563248930841	293.139940912287	1269.074062164985	209.040767393184	344.853134908654	1092.636873448314	394.860611308767	575.469848182368	1012.586876721344	299.377454761617	641.109704753645	1038.564890184355	201.178585530875	573.654317564216	890.883355537553	43.098193898830	543.284437137160	1060.807388404224	95.606302711839	580.743481968076	972.839957850125	37.033013163714	619.358397746740	1181.089644216923	43.463834343637	611.218654437126	1176.753293832633	40.789938028543	389.238400938042	1246.320806818141	39.263901210214	305.187398592117	1325.909209879477	107.438400225553	324.552154566532	1454.440816407820	64.312550562416	289.692701776404	971.596001068684	1095.238990620911	240.606348738890	972.855125568491	832.753821250788	235.868691446284	1248.124443463142	1086.992622309639	760.176799576084	1475.118776878517	1050.405674482326	655.254725523663	
72	58.613285714286	950.746146714199	1003.880880846894	520.850095933854	1104.995867699341	1428.129312674116	318.156760945136	1234.680152885078	1357.304897259334	457.537117004286	1186.338377142076	1430.119386911042	645.063157067685	1116.639180258412	1489.122170124504	475.048086259514	1190.245962111555	933.663846012193	606.359971454187	1142.288934448211	957.016969442664	335.530634725945	1188.844201083847	722.988808920422	577.891298847516	1089.960713076451	626.825611768358	645.344340849995	1146.062045750431	563.194671920613	561.293036242969	1128.170903895242	478.513656198971	566.556414563915	1215.948425124576	764.114969456525	360.264610250363	1152.047198535252	635.523616833284	294.282666124820	1255.746495842622	574.233892856813	350.421073754161	1277.232147619655	508.164787247591	349.305535904558	1256.664009305311	435.951198550817	340.549088134006	1181.011339471809	309.734267357348	294.432281048233	1263.497265128793	206.031973838627	346.958731964299	1089.713206916976	394.456483193361	574.674837667784	1008.932317460619	299.757621849138	640.609194732106	1034.171231772094	201.174489925165	573.414371650494	885.595764555708	43.470742872751	543.433503370049	1055.601530404788	95.643678308676	580.822052839446	967.556972607045	37.122824815424	619.409669961710	1175.806098592225	43.161307100191	611.319865629956	1167.742119128942	39.925934305107	391.047066633128	1237.399156524608	37.885399342538	307.002489249008	1318.512316974130	103.894575506371	327.478930129450	1446.412342994727	58.201485821349	292.348938607312	973.360914437376	1093.473492704769	237.455248732345	978.281110352079	830.916572188865	232.341913875047	1248.161206399486	1086.762684548985	756.416967793618	1474.060456548453	1050.478404831708	649.232269816523	
73	58.626571428571	952.145972651095	1003.472460314649	518.442503472750	1105.425315362492	1427.164342672789	314.681008417684	1235.205454753773	1357.215219538597	454.408920715009	1186.347411568297	1430.350859857717	641.687811022284	1116.756172266350	1488.737544227131	471.405697963342	1191.573900619972	933.286145513999	604.734563441122	1144.307661999799	956.272814261022	334.008870943460	1189.217154420986	722.159240265783	577.006731578451	1088.965662733487	626.716109298492	643.998698359831	1144.890766736925	562.463416827195	560.340585265823	1126.389091323442	477.679811453977	565.497715578368	1217.746836060328	762.525593938283	359.983374816573	1152.818557867650	634.457971387778	294.085135306198	1255.821583831200	572.959055034170	351.267326507130	1276.084857897365	506.103814866612	350.619673477588	1255.117926099887	433.671487599596	341.410479916234	1178.135975125641	308.349313161957	295.051655611258	1258.518987572207	203.597757711737	348.491344045054	1087.147432822922	394.079745018103	573.765845935754	1005.542510874232	300.274629027149	640.035401954622	1029.959088291362	201.266832531401	573.138984074914	880.342792815542	44.094767342673	543.615422521270	1050.482088832905	95.741091745635	580.924373751465	962.317140728663	37.325410676017	619.470189379007	1170.553501521244	42.786117163311	611.427572148428	1159.685551598638	39.296299025486	392.200055183618	1229.456273263613	36.956370310072	308.190889478274	1311.755717832402	101.182439734867	329.715457440870	1439.166223040733	53.470693820103	294.394704404645	975.753382452407	1091.648215100816	233.965764336775	984.436609946583	829.082888971446	228.371964586703	1248.003649220690	1086.750301081567	752.827292826021	1472.692690886517	1049.679440540832	643.435662909736	
74	58.639857142857	953.476859880790	1003.283138486678	515.951263565914	1106.055431683378	1426.332823102405	311.088360312565	1235.848535593146	1357.208906732147	451.209187001364	1186.478364818454	1430.781450731071	638.194085625521	1116.998355439287	1488.508304840409	467.643228940446	1192.784191801346	933.049215079027	603.002018770862	1146.203800366975	955.787179039636	332.395002028195	1189.682058541518	721.528703745989	575.896494894400	1088.344786057997	626.672569782509	642.484409320031	1144.175000410193	561.880928445852	559.172609849498	1125.186931520184	476.842831598079	564.319331024775	1219.474521540933	761.355718751905	359.726876038066	1153.919044603719	633.920606742064	293.528052941760	1256.133095740197	572.189121155581	351.857620593569	1275.112458315118	504.545249209704	351.563047882320	1253.890851080061	431.925657223578	341.848227592026	1175.882531007699	307.445103959651	295.017668742944	1254.145811446318	201.766180213622	349.466215462922	1085.034091123998	393.731921498525	572.764557221883	1002.481154974038	300.951822107964	639.390654691510	1025.974741890007	201.474748364847	572.840936697348	875.136189725147	45.038610713884	543.833482568689	1045.477440200124	95.912301995382	581.060226284473	957.129029736275	37.675925518152	619.542804589961	1165.339544865585	42.336668836175	611.540286452852	1152.603255121923	38.902117245124	392.792539731160	1222.489569169240	36.427944066133	308.834399505631	1305.637765934279	99.301287648338	331.255958988752	1432.698315235773	50.117049793223	295.811182136674	978.775729561519	1089.816619754470	230.161591769758	991.293156475632	827.316155220627	223.995372977152	1247.645100214537	1086.987628504154	749.432205869905	1470.995196790106	1047.986039467626	637.915777926532	
